HIERARCHY
ROOT Hips
{
  OFFSET -69.4423 88.0299 51.6846
  CHANNELS 6 Xposition Yposition Zposition Zrotation Xrotation Yrotation
  JOINT Spine
  {
    OFFSET 12.0259 -0.162853 1.93176e-005
    CHANNELS 3 Zrotation Xrotation Yrotation
    JOINT Spine1
    {
      OFFSET 15.3169 -0.0121909 0
      CHANNELS 3 Zrotation Xrotation Yrotation
      JOINT Spine2
      {
        OFFSET 15.3176 -0.0121922 0
        CHANNELS 3 Zrotation Xrotation Yrotation
        JOINT Neck
        {
          OFFSET 19.9142 1.56236 0
          CHANNELS 3 Zrotation Xrotation Yrotation
          JOINT Head
          {
            OFFSET 6.92646 0 0
            CHANNELS 3 Zrotation Xrotation Yrotation
            End Site
            {
              OFFSET 20.7666 0 0
            }
          }
          JOINT LeftShoulder
          {
            OFFSET -4.94072 -1.14703 8.14416
            CHANNELS 3 Zrotation Xrotation Yrotation
            JOINT LeftArm
            {
              OFFSET 14.108 0 -2.74767e-005
              CHANNELS 3 Zrotation Xrotation Yrotation
              JOINT LeftForeArm
              {
                OFFSET 28.5802 -0.0783412 -0.0284884
                CHANNELS 3 Zrotation Xrotation Yrotation
                JOINT LeftHand
                {
                  OFFSET 27.092 0 0
                  CHANNELS 3 Zrotation Xrotation Yrotation
                  End Site
                  {
                    OFFSET 9.55928 -0.186424 0.145352
                  }
                }
              }
            }
          }
          JOINT RightShoulder
          {
            OFFSET -7.15748 -1.33027 -6.24935
            CHANNELS 3 Zrotation Xrotation Yrotation
            JOINT RightArm
            {
              OFFSET 14.108 0 1.82997e-005
              CHANNELS 3 Zrotation Xrotation Yrotation
              JOINT RightForeArm
              {
                OFFSET 28.5802 -0.0707221 2.30684e-005
                CHANNELS 3 Zrotation Xrotation Yrotation
                JOINT RightHand
                {
                  OFFSET 27.092 0 -1.30073e-005
                  CHANNELS 3 Zrotation Xrotation Yrotation
                  End Site
                  {
                    OFFSET 9.55929 -0.186417 -0.145354
                  }
                }
              }
            }
          }
        }
      }
    }
  }
  JOINT LeftUpLeg
  {
    OFFSET 0.00499725 -0.534999 8.837
    CHANNELS 3 Zrotation Xrotation Yrotation
    JOINT LeftLeg
    {
      OFFSET 39.9035 -0.00124594 0.000252775
      CHANNELS 3 Zrotation Xrotation Yrotation
      JOINT LeftFoot
      {
        OFFSET 39.6689 0 0
        CHANNELS 3 Zrotation Xrotation Yrotation
        JOINT LeftToe
        {
          OFFSET 10.1624 13.6296 0
          CHANNELS 3 Zrotation Xrotation Yrotation
          End Site
          {
            OFFSET 8.38147 0 0
          }
        }
      }
    }
  }
  JOINT RightUpLeg
  {
    OFFSET 0.00499725 -0.535 -8.837
    CHANNELS 3 Zrotation Xrotation Yrotation
    JOINT RightLeg
    {
      OFFSET 39.9036 -0.000268477 0.000106433
      CHANNELS 3 Zrotation Xrotation Yrotation
      JOINT RightFoot
      {
        OFFSET 39.6689 1.17892e-005 0
        CHANNELS 3 Zrotation Xrotation Yrotation
        JOINT RightToe
        {
          OFFSET 10.1624 13.6296 0
          CHANNELS 3 Zrotation Xrotation Yrotation
          End Site
          {
            OFFSET 8.38147 0 0
          }
        }
      }
    }
  }
}
MOTION
Frames:	6
Frame Time:	0.0333333
-54.674 88.776 82.019 -96.2036 10.6982 -177.199 0.97109 1.50161 0.110957 1.94026 3.00535 0.196705 1.94026 3.00537 0.196682 -14.0132 0.298344 -10.657 57.742 3.05878 5.08153 -167.583 -1.28462 -93.7602 -5.15367 7.666 85.2108 -16.0698 1.4499 -10.9179 4.91841 -74.6077 7.19288 -167.619 -2.64275 74.2637 -12.7849 -6.68694 -83.6379 -28.6766 -4.24793 17.3603 21.139 88.3369 -21.1367 -10.0317 5.9616 176.319 -16.4165 0.873763 -1.43926 0.159516 -0.0799879 0.197019 90 0 -7.95139e-016 -11.2043 -18.2628 173.513 -47.5827 -0.0748459 -0.15886 -6.64855 24.9952 5.60187 90 -4.77083e-015 -3.18055e-015 
-52.7785 88.6006 81.3388 -95.559 8.07154 -176.418 1.01101 1.26011 -0.0569542 2.02403 2.51953 -0.136058 2.02404 2.51953 -0.136059 -13.7681 0.196594 -10.7249 56.9525 3.01259 5.32373 -167.894 -1.34776 -93.8633 -8.68403 8.62743 86.3261 -17.1882 1.59334 -11.5595 5.53867 -76.4903 7.81272 -167.859 -2.68083 74.2301 -12.521 -6.35308 -83.5408 -28.4585 -4.19369 17.2627 17.8747 88.0619 -17.8723 -6.82393 6.61117 174.681 -13.5959 0.933793 -1.38055 -0.0788739 3.12643 0.492493 90 -1.98785e-015 3.97569e-015 -15.2495 -17.0493 170.64 -54.6606 0.019878 -0.106907 -7.37585 19.4793 4.88569 90 -9.54166e-015 3.18055e-015 
-50.9737 88.3997 80.5646 -95.2649 5.58022 -175.039 1.03106 1.05101 -0.370058 2.06943 2.09559 -0.759013 2.06943 2.09561 -0.759027 -14.016 0.155684 -10.7312 57.1901 3.53523 5.98385 -167.689 -1.41858 -93.8903 -13.0146 8.95074 86.9361 -18.3385 1.72736 -12.2165 4.72365 -78.2861 7.07507 -167.616 -2.79101 74.2853 -12.7365 -6.15376 -83.758 -28.5915 -4.23158 17.3398 14.5795 87.6564 -14.5756 -4.95639 5.9935 172.609 -12.7577 1.01101 -1.28778 0.323598 5.45008 0.628488 90 3.97569e-016 1.59028e-015 -19.3994 -14.3475 167.815 -59.5526 -0.0286291 0.0363236 -5.60221 9.44504 2.21741 90 6.36111e-015 -3.18055e-015 
-49.1554 88.1911 80.2932 -94.7223 3.97089 -175.638 1.0871 0.9574 -0.266265 2.17909 1.91004 -0.550605 2.17908 1.91 -0.550624 -13.8238 0.0569061 -10.8765 56.4242 3.19675 6.01022 -167.895 -1.4584 -94.0473 -15.5527 8.56053 87.2339 -19.0137 1.81425 -12.6122 5.40793 -78.8675 7.69028 -167.826 -2.91724 74.1565 -12.6971 -5.81551 -83.9637 -28.4703 -4.19735 17.28 12.2316 87.2347 -12.22 -4.50386 4.47968 172.825 -14.7221 1.05098 -1.20883 1.75866 5.44673 0.567363 90 1.59028e-015 1.59028e-015 -22.2445 -12.0759 168.375 -62.0148 -0.107639 0.0886619 -2.95987 3.22588 0.435389 90 -6.36111e-015 -0 
-47.2735 87.9961 80.3421 -93.9832 2.42317 -176.977 1.20728 0.886014 -0.0525813 2.41585 1.77123 -0.123679 2.41583 1.77124 -0.123693 -14.0551 -0.0741909 -10.9471 56.7021 3.30291 6.52778 -167.685 -1.60139 -94.1457 -16.2191 7.81823 87.1227 -20.3072 2.00789 -13.3421 5.59585 -80.2023 7.83704 -167.621 -3.16642 74.1251 -12.6654 -5.61531 -84.3003 -28.5922 -4.22844 17.3412 12.5315 87.3219 -12.5117 -3.40102 3.94349 173.982 -16.2047 1.0706 -1.13342 3.49316 5.71163 0.534633 90 0 -1.59028e-015 -24.3733 -11.0315 170.096 -62.3541 -0.125397 0.119882 -0.617136 1.92293 -0.0558718 90 0 -6.36111e-015 
-45.4622 87.8719 80.0968 -93.8296 1.09641 -176.525 1.22774 0.774848 -0.174624 2.44925 1.54629 -0.36567 2.44924 1.54628 -0.36568 -14.2695 -0.108758 -11.126 56.8679 3.50097 6.9209 -167.51 -1.71331 -94.3608 -17.6993 7.28191 87.1334 -21.5386 2.22198 -14.0077 8.3071 -81.0583 10.6613 -167.43 -3.38295 73.9897 -13.0406 -5.59334 -84.5168 -28.6473 -4.24587 17.3792 15.7322 87.8424 -15.7053 -1.92459 3.80451 173.386 -15.7933 1.06381 -1.10052 3.83158 7.16418 0.521316 90 0 7.95139e-016 -27.3518 -9.60307 170.112 -61.0892 -0.118118 0.157647 1.41927 4.04064 0.0145028 90 1.59028e-015 3.18055e-015 
